<svg
  width="159"
  height="72"
  viewBox="0 0 159 72"
  fill="#8335e9"
  xmlns="http://www.w3.org/2000/svg"
>
  <path
    d="M23.424 67.968C16.064 67.968 10.304 65.76 6.144 61.344C2.048 56.864 0 50.88 0 43.392C0 35.968 2.144 30.048 6.432 25.632C10.784 21.216 16.704 19.008 24.192 19.008C31.936 19.008 37.92 21.312 42.144 25.92C46.432 30.464 48.576 36.448 48.576 43.872C48.576 51.296 46.272 57.184 41.664 61.536C37.056 65.824 30.976 67.968 23.424 67.968ZM35.712 43.872C35.712 39.456 34.72 36 32.736 33.504C30.816 30.944 28.064 29.664 24.48 29.664C20.832 29.664 17.984 30.784 15.936 33.024C13.888 35.264 12.864 38.688 12.864 43.296C12.864 47.904 13.728 51.392 15.456 53.76C17.248 56.128 19.968 57.312 23.616 57.312C27.2 57.312 30.112 56.256 32.352 54.144C34.592 51.968 35.712 48.544 35.712 43.872Z"
    fill="#8335e9"
  />
  <path
    d="M92.5053 66.6749C92.7192 68.8356 91.1733 70.7693 89.0139 70.9969C84.9947 71.4207 78.6931 72 74.282 72C69.7387 72 63.8728 71.3854 60.3514 70.9593C58.5377 70.7398 57.1356 69.2898 56.9378 67.4737L56.7823 66.046C56.4976 63.4314 58.7696 61.2451 61.3804 61.5625C65.038 62.0072 69.9548 62.5 73.782 62.5C78.0486 62.5 83.8882 61.8875 87.7786 61.4121C90.0441 61.1352 92.118 62.7635 92.3429 65.0348L92.5053 66.6749Z"
    fill="#8335e9"
  />
  <path
    d="M97.815 34.464C97.815 24.416 100.439 16.224 105.687 9.888C110.935 3.488 118.327 0.192001 127.863 0C138.103 0 145.687 3.296 150.615 9.888C155.543 16.48 158.007 24.448 158.007 33.792C158.007 43.904 155.351 52.16 150.039 58.56C144.791 64.96 137.399 68.16 127.863 68.16C117.687 68.16 110.135 64.896 105.207 58.368C100.279 51.776 97.815 43.808 97.815 34.464ZM110.775 34.368C110.775 41.216 112.151 46.816 114.903 51.168C117.655 55.52 121.943 57.696 127.767 57.696C133.015 57.696 137.207 55.744 140.343 51.84C143.479 47.936 145.047 41.92 145.047 33.792C145.047 27.008 143.671 21.44 140.919 17.088C138.167 12.736 133.879 10.56 128.055 10.56C122.935 10.56 118.775 12.704 115.575 16.992C112.375 21.28 110.775 27.072 110.775 34.368Z"
    fill="#8335e9"
  />
</svg>