<svg width="75" height="94" viewBox="0 0 75 94" fill="none" xmlns="http://www.w3.org/2000/svg">
<path d="M37.1616 94C25.6092 94 16.5162 90.7602 9.88267 84.2806C3.29423 77.7556 0 68.9197 0 57.773C0 46.2637 3.42961 37.2692 10.2888 30.7896C17.148 24.2646 26.4215 21.0022 38.1092 21.0022C49.6164 21.0022 58.6417 24.2646 65.185 30.7896C71.7283 37.2692 75 45.8559 75 56.5495C75 68.1041 71.6155 77.2345 64.8466 83.9407C58.1228 90.6469 48.8944 94 37.1616 94ZM37.7031 37.4505C32.6489 37.4505 28.7229 39.195 25.9251 42.684C23.1273 46.173 21.7283 51.1121 21.7283 57.5011C21.7283 70.8682 27.0984 77.5517 37.8384 77.5517C48.0821 77.5517 53.204 70.6869 53.204 56.9573C53.204 43.9528 48.037 37.4505 37.7031 37.4505Z" fill="#F8F8F8"/>
<path d="M17.6668 11.6905H57.3328V0H17.6668V11.6905Z" fill="#95E713"/>
</svg>
