<?xml version="1.0" standalone="no"?>
<!DOCTYPE svg PUBLIC "-//W3C//DTD SVG 20010904//EN"
 "http://www.w3.org/TR/2001/REC-SVG-20010904/DTD/svg10.dtd">
<svg version="1.0" xmlns="http://www.w3.org/2000/svg"
 width="300.000000pt" height="237.000000pt" viewBox="0 0 300.000000 237.000000"
 preserveAspectRatio="xMidYMid meet">
<g transform="translate(0.000000,237.000000) scale(0.100000,-0.100000)"
fill="#000000" stroke="none">
<path d="M344 2166 c-3 -8 -4 -25 -2 -38 2 -17 11 -24 38 -28 50 -8 120 -50
136 -82 23 -44 15 -314 -26 -908 -11 -157 -24 -370 -30 -475 -6 -104 -15 -206
-20 -226 -21 -77 -73 -116 -180 -134 -63 -11 -65 -12 -68 -43 l-3 -32 345 0
346 0 0 34 0 33 -67 7 c-75 8 -138 32 -167 64 -29 34 -27 112 34 1050 11 166
17 310 14 320 -10 35 23 -35 354 -763 l337 -740 36 -3 36 -3 344 746 c291 631
345 741 351 718 5 -22 62 -1025 71 -1254 3 -91 -41 -124 -178 -136 l-75 -6 0
-33 0 -34 416 0 415 0 -3 32 c-3 33 -4 33 -68 41 -88 10 -168 51 -190 97 -15
30 -24 156 -60 829 -42 785 -42 793 -23 820 24 32 117 81 155 81 28 0 29 2 26
38 l-3 37 -213 3 -214 2 -25 -27 c-13 -16 -172 -354 -352 -753 -206 -457 -332
-725 -341 -725 -9 0 -136 272 -346 739 -182 407 -340 746 -350 753 -27 20
-442 19 -450 -1z"/>
</g>
</svg>
